<svg width="2560" height="918" viewBox="0 0 2560 918" fill="none" xmlns="http://www.w3.org/2000/svg">
<g clip-path="url(#clip0_1_10)">
<path d="M917.291 458.646C917.291 367.934 890.392 279.26 839.995 203.836C789.598 128.412 717.968 69.6263 634.161 34.9125C550.355 0.198738 458.137 -8.88399 369.168 8.81295C280.2 26.5099 198.477 70.1917 134.334 134.334C70.1913 198.477 26.5099 280.2 8.81299 369.168C-8.88395 458.137 0.198621 550.355 34.9124 634.162C69.6262 717.968 128.412 789.599 203.836 839.995C279.26 890.392 367.934 917.291 458.645 917.291C580.286 917.291 696.944 868.97 782.957 782.957C868.969 696.944 917.291 580.286 917.291 458.646Z" fill="#00CFFF"/>
<path d="M768.153 435.772C758.44 428.418 748.333 421.6 737.877 415.349C733.424 412.548 729.297 409.26 725.572 405.546C717.76 397.785 704.689 384.306 700.451 375.984C697.745 370.878 698.869 361.075 700.963 351.987C704.667 335.958 701.897 319.115 693.253 305.117L679.62 283.009C673.361 272.919 668.323 262.122 664.61 250.843C659.935 236.338 651.764 223.205 640.817 212.602C618.71 191.004 557.543 180.385 506.741 178.7C503.59 177.759 500.384 177.009 497.143 176.453C474.524 172.573 450.374 166.242 428.726 170.377C396.56 176.402 364.088 186.46 339.784 211.223C334.679 216.329 327.276 218.626 322.017 223.375C311.805 232.82 297.458 232.82 288.166 243.287C282.754 249.363 280.252 269.326 266.007 276.933C242.419 289.544 225.162 303.483 219.29 310.58C214.95 315.941 211.632 322.17 207.394 327.633C203.156 333.096 182.835 342.695 176.76 348.618C172.251 353.613 168.979 359.598 167.205 366.089C165.432 372.58 165.207 379.397 166.548 385.991C166.906 387.574 167.161 388.85 167.365 389.872C169.714 398.551 175.994 414.226 174.564 421.425C172.828 429.951 150.925 493.466 200.092 510.366C204.591 511.712 208.538 514.469 211.351 518.229C214.164 521.989 215.694 526.553 215.716 531.249C216.778 539.726 219.227 547.972 222.967 555.654C226.234 561.878 231.052 567.154 236.956 570.971C243.252 576.958 249.201 583.299 254.775 589.964C272.134 622.079 267.233 638.162 300.726 649.037C309.273 651.856 317.476 655.623 325.182 660.27C334.575 665.936 344.645 670.396 355.153 673.544L356.48 674.004C363.832 656.134 371.338 639.234 378.792 623.253C318.953 561.985 334.679 493.109 340.448 474.728C340.615 474.183 340.916 473.688 341.322 473.289C341.728 472.889 342.228 472.598 342.776 472.441C343.324 472.283 343.902 472.265 344.459 472.389C345.015 472.512 345.532 472.772 345.963 473.146C358.523 484.174 397.02 523.845 392.271 595.682C405.444 569.286 418.31 546.106 430.054 526.296C415.919 503.078 408.371 476.451 408.218 449.269C408.065 422.088 415.313 395.377 429.185 372.002C429.492 371.505 429.921 371.096 430.43 370.812C430.939 370.528 431.513 370.379 432.096 370.379C432.679 370.379 433.253 370.528 433.762 370.812C434.271 371.096 434.699 371.505 435.006 372.002C443.839 385.072 467.734 428.164 452.927 489.433C463.649 472.992 472.38 460.841 478.098 453.233C493.416 351.119 570.614 317.626 590.883 310.529C591.427 310.336 592.011 310.285 592.58 310.378C593.15 310.472 593.686 310.708 594.139 311.065C594.593 311.422 594.949 311.887 595.174 312.418C595.399 312.95 595.486 313.529 595.427 314.103C592.206 345.201 580.824 374.895 562.435 400.179C544.046 425.463 519.302 445.439 490.709 458.084C479.936 472.227 469.572 487.135 459.667 502.401C493.875 475.698 541.767 463.139 581.591 472.788C582.149 472.916 582.667 473.18 583.098 473.557C583.53 473.933 583.861 474.411 584.064 474.947C584.266 475.482 584.332 476.06 584.257 476.627C584.182 477.195 583.967 477.736 583.633 478.2C572.196 493.517 526.653 544.574 440.673 532.78C426.173 557.237 412.898 581.948 401.104 605.639C438.171 577.608 492.292 566.886 534.261 580.978C534.822 581.158 535.328 581.476 535.734 581.903C536.14 582.33 536.432 582.851 536.585 583.42C536.737 583.989 536.744 584.587 536.606 585.159C536.468 585.731 536.188 586.26 535.793 586.697C522.773 600.737 472.584 646.791 390.025 628.512C382.264 644.851 370.725 671.757 365.109 685.032C363.169 689.627 361.382 694.223 360.003 698.92C356.327 709.744 351.425 723.274 345.554 736.753C344.738 738.68 344.326 740.754 344.344 742.847C344.361 744.939 344.807 747.006 345.654 748.92C346.5 750.834 347.73 752.554 349.267 753.974C350.804 755.394 352.616 756.483 354.591 757.176C419.709 780.449 490.421 783.07 557.084 764.681C559.286 764.051 561.32 762.936 563.034 761.416C564.748 759.896 566.099 758.011 566.988 755.899L569.746 749.466C569.746 749.466 598.542 682.633 602.779 653.479C603.989 644.297 606.843 635.407 611.204 627.236C613.451 623.149 616.702 619.701 620.65 617.217C624.598 614.734 629.114 613.297 633.771 613.042C655.726 611.868 702.443 608.804 719.445 603.392C742.012 596.244 732.209 555.092 731.035 550.65C729.86 546.208 741.91 535.895 744.361 529.921C746.812 523.947 738.285 521.803 734.762 515.217C731.239 508.63 743.493 503.831 744.974 497.857C746.454 491.883 740.991 485.297 738.643 480.855C737.082 477.629 736.014 474.187 735.477 470.644C735.477 470.644 751.968 458.543 761.005 450.936C770.042 443.328 768.153 436.997 768.153 435.619" fill="black"/>
<path d="M1375.48 612.174V429.237L1309.1 562.444H1270.2L1203.82 429.237V612.174H1132.9V305.117H1209.9L1289.45 465.589L1369.45 305.117H1446.04V612.174H1375.48Z" fill="black"/>
<path d="M1764.28 549.884V612.174H1548.46V305.117H1760.4V367.407H1619.38V427.092H1740.48V484.582H1619.38V549.884H1764.28Z" fill="black"/>
<path d="M2084.71 367.407H1991.33V612.174H1920.31V367.407H1826.46V305.117H2084.61L2084.71 367.407Z" fill="black"/>
<path d="M2162.57 612.174V305.117H2233.49V612.174H2162.57Z" fill="black"/>
<path d="M2519.77 395.335C2517.19 392.531 2514.11 390.244 2510.68 388.595C2504.38 384.995 2497.89 381.756 2491.23 378.894C2482.95 375.249 2474.42 372.212 2465.7 369.806C2456.7 367.238 2447.38 365.933 2438.02 365.926C2428.27 365.355 2418.54 367.512 2409.94 372.155C2406.66 374.104 2403.98 376.914 2402.18 380.279C2400.38 383.645 2399.53 387.439 2399.73 391.25C2399.61 394.37 2400.23 397.474 2401.54 400.307C2402.86 403.139 2404.83 405.618 2407.29 407.537C2413.89 412.332 2421.29 415.911 2429.14 418.106C2438.64 421.118 2450.33 424.59 2464.17 428.624C2481.79 433.054 2498.9 439.317 2515.22 447.311C2528.51 453.631 2539.9 463.332 2548.26 475.443C2556.52 489.13 2560.52 504.967 2559.74 520.935C2560.21 536.029 2556.95 551.004 2550.25 564.538C2544.22 576.079 2535.45 585.966 2524.72 593.334C2513.44 600.814 2500.9 606.193 2487.7 609.213C2473.69 612.571 2459.33 614.285 2444.92 614.318C2429.49 614.276 2414.11 612.771 2398.97 609.825C2383.54 606.873 2368.41 602.515 2353.78 596.806C2339.81 591.453 2326.46 584.605 2313.96 576.383L2345.1 514.553C2348.52 517.647 2352.29 520.337 2356.33 522.569C2363.94 527.082 2371.82 531.123 2379.92 534.669C2390.08 539.132 2400.56 542.819 2411.27 545.698C2422.68 548.844 2434.46 550.441 2446.3 550.446C2456.11 551.1 2465.91 549.051 2474.63 544.523C2477.52 542.855 2479.91 540.438 2481.55 537.527C2483.18 534.616 2484.01 531.319 2483.93 527.981C2484.04 524.389 2483.2 520.831 2481.5 517.666C2479.79 514.502 2477.28 511.843 2474.22 509.958C2466.01 504.872 2457.12 500.954 2447.83 498.317C2436.7 494.896 2423.98 491.015 2409.53 486.727C2393.37 482.047 2377.78 475.555 2363.07 467.376C2351.84 461.174 2342.43 452.123 2335.81 441.133C2329.51 429.233 2326.47 415.884 2326.98 402.432C2326.33 383.142 2331.69 364.128 2342.29 348.005C2352.64 333.167 2366.95 321.543 2383.6 314.46C2401.48 306.744 2420.79 302.865 2440.27 303.074C2454.34 303.001 2468.35 304.717 2481.98 308.18C2494.87 311.429 2507.46 315.767 2519.61 321.149C2531.31 326.254 2541.72 331.36 2550.96 336.721L2519.77 395.335Z" fill="black"/>
</g>
<defs>
<clipPath id="clip0_1_10">
<rect width="2560" height="917.291" fill="white"/>
</clipPath>
</defs>
</svg>
